<svg width="512" height="512" viewBox="0 0 512 512" fill="none" xmlns="http://www.w3.org/2000/svg">
  <rect width="512" height="512" rx="128" fill="#1E88E5"/>
  <path d="M256 96C167.634 96 96 167.634 96 256C96 344.366 167.634 416 256 416C344.366 416 416 344.366 416 256C416 167.634 344.366 96 256 96ZM256 384C185.307 384 128 326.693 128 256C128 185.307 185.307 128 256 128C326.693 128 384 185.307 384 256C384 326.693 326.693 384 256 384Z" fill="white"/>
  <path d="M256 160C203.07 160 160 203.07 160 256C160 308.93 203.07 352 256 352C308.93 352 352 308.93 352 256C352 203.07 308.93 160 256 160ZM256 320C220.654 320 192 291.346 192 256C192 220.654 220.654 192 256 192C291.346 192 320 220.654 320 256C320 291.346 291.346 320 256 320Z" fill="white"/>
  <path d="M256 224C238.327 224 224 238.327 224 256C224 273.673 238.327 288 256 288C273.673 288 288 273.673 288 256C288 238.327 273.673 224 256 224Z" fill="white"/>
  <path d="M256 64C238.327 64 224 78.327 224 96V128C224 145.673 238.327 160 256 160C273.673 160 288 145.673 288 128V96C288 78.327 273.673 64 256 64Z" fill="white"/>
  <path d="M256 352C238.327 352 224 366.327 224 384V416C224 433.673 238.327 448 256 448C273.673 448 288 433.673 288 416V384C288 366.327 273.673 352 256 352Z" fill="white"/>
  <path d="M416 224H384C366.327 224 352 238.327 352 256C352 273.673 366.327 288 384 288H416C433.673 288 448 273.673 448 256C448 238.327 433.673 224 416 224Z" fill="white"/>
  <path d="M128 224H96C78.327 224 64 238.327 64 256C64 273.673 78.327 288 96 288H128C145.673 288 160 273.673 160 256C160 238.327 145.673 224 128 224Z" fill="white"/>
</svg>
